<svg xmlns="http://www.w3.org/2000/svg" width="760" height="96" viewBox="0 0 760 96">
  <defs>
    <linearGradient id="pGlass" x1="0%" y1="0%" x2="0%" y2="100%">
      <stop offset="0%" stop-color="#ffffff" stop-opacity="0.1" />
      <stop offset="100%" stop-color="#ffffff" stop-opacity="0.02" />
    </linearGradient>
    <linearGradient id="pBorder" x1="0%" y1="0%" x2="100%" y2="100%">
      <stop offset="0%" stop-color="#ffffff" stop-opacity="0.4" />
      <stop offset="50%" stop-color="#ffffff" stop-opacity="0.08" />
      <stop offset="100%" stop-color="#ffffff" stop-opacity="0.25" />
    </linearGradient>
    <linearGradient id="pProgress" x1="0%" y1="0%" x2="100%" y2="0%">
      <stop offset="0%" stop-color="#8b949e" />
      <stop offset="100%" stop-color="#ffffff" />
    </linearGradient>
  </defs>

  <rect x="2" y="2" width="756" height="92" rx="24" fill="url(#pGlass)" stroke="url(#pBorder)" stroke-width="1.3" />

  <rect x="20" y="16" width="64" height="64" rx="14" fill="#161b22" stroke="url(#pBorder)" stroke-width="1" />
  <circle cx="52" cy="48" r="14" fill="none" stroke="#ffffff" stroke-width="2" />
  <circle cx="52" cy="48" r="4" fill="#ffffff" />


  <text x="100" y="38" fill="#ffffff" font-family="-apple-system, BlinkMacSystemFont, sans-serif" font-size="14" font-weight="700">CREATIVE FLOW // DEEP FOCUS</text>
  <text x="100" y="58" fill="#8b949e" font-family="-apple-system, BlinkMacSystemFont, sans-serif" font-size="12">Currently Coding • Ambient &amp; Synthwave</text>

  <g fill="#ffffff" opacity="0.85">
    <rect x="420" y="44" width="3" height="14" rx="1.5" />
    <rect x="426" y="36" width="3" height="22" rx="1.5" />
    <rect x="432" y="48" width="3" height="10" rx="1.5" />
    <rect x="438" y="32" width="3" height="26" rx="1.5" />
    <rect x="444" y="40" width="3" height="18" rx="1.5" />
  </g>

  <polygon points="515,48 503,40 503,56" fill="#8b949e" />
  <circle cx="545" cy="48" r="16" fill="#ffffff" fill-opacity="0.1" stroke="url(#pBorder)" stroke-width="1" />
  <polygon points="543,43 551,48 543,53" fill="#ffffff" />
  <polygon points="575,48 587,40 587,56" fill="#8b949e" />

  <rect x="100" y="74" width="620" height="4" rx="2" fill="#21262d" />
  <rect x="100" y="74" width="390" height="4" rx="2" fill="url(#pProgress)" />
  <circle cx="490" cy="76" r="4" fill="#ffffff" />
</svg>
